<svg width="343" height="343" xmlns="http://www.w3.org/2000/svg" version="1.1">
 <g>
  <title>Layer 1</title>
  <g stroke="null" id="surface1">
   <path stroke="null" id="svg_1" fill="rgb(100%,83.137255%,30.588235%)" fill-rule="nonzero" d="m59.00625,222.57677l-32.31759,0l0,-52.30507c-1.07824,-50.36365 26.30604,-97.34751 71.59201,-122.82693c45.28597,-25.4865 101.39864,-25.4865 146.68462,0c45.28597,25.47941 72.67026,72.46328 71.59201,122.82693l0,52.36884l-33.41798,0c-9.29795,0 -18.21187,3.54274 -24.7773,9.85591c-6.56543,6.31316 -10.24326,14.86535 -10.22848,23.78598l0,55.81947c-22.76115,-14.07885 -49.39952,-21.29189 -76.48101,-20.71088c-27.48767,-0.02126 -54.42146,7.4681 -77.6331,21.58949l0,-56.75475c0.01477,-8.92063 -3.67044,-17.4799 -10.23588,-23.78598c-6.56543,-6.31317 -15.47935,-9.863 -24.7773,-9.863"/>
   <path stroke="null" id="svg_2" fill="rgb(100%,94.117647%,77.254902%)" fill-rule="nonzero" d="m135.73097,164.88674c0,18.64192 -15.75261,33.76235 -35.19043,33.76235c-19.43043,0 -35.19042,-15.12043 -35.19042,-33.76235c0,-18.649 15.75998,-33.76236 35.19042,-33.76236c19.43782,0 35.19043,15.11335 35.19043,33.76236zm0,0"/>
   <path stroke="null" id="svg_3" fill="rgb(100%,94.117647%,77.254902%)" fill-rule="nonzero" d="m277.89585,164.88674c0,18.64192 -15.75998,33.76235 -35.19042,33.76235c-19.43782,0 -35.19042,-15.12043 -35.19042,-33.76235c0,-18.649 15.7526,-33.76236 35.19042,-33.76236c19.43043,0 35.19042,15.11335 35.19042,33.76236zm0,0"/>
   <path stroke="null" id="svg_4" fill="rgb(100%,97.254902%,88.235294%)" fill-rule="nonzero" d="m94.99427,131.1244c-2.0457,0.02126 -4.0914,0.21965 -6.10017,0.5881c16.7053,2.94048 28.83177,16.91306 28.83177,33.2026c0,16.28954 -12.12648,30.26211 -28.83177,33.2026c2.00877,0.36845 4.05447,0.56684 6.10017,0.5881c12.93147,0.51724 25.11703,-5.8101 31.74154,-16.47375c6.6319,-10.67075 6.6319,-23.96312 0,-34.63386c-6.62452,-10.66366 -18.81008,-16.991 -31.74154,-16.47376l0,0.00001l0,-0.00002zm0,0"/>
   <path stroke="null" id="svg_5" fill="rgb(100%,97.254902%,88.235294%)" fill-rule="nonzero" d="m237.21823,131.1244c-2.05308,0.02126 -4.0914,0.21965 -6.10017,0.5881c16.69791,2.94048 28.83177,16.91306 28.83177,33.2026c0,16.28954 -12.13387,30.26211 -28.83177,33.2026c2.00877,0.36845 4.04709,0.56684 6.10017,0.5881c18.87654,-0.75106 33.77985,-15.65893 33.77985,-33.79068c0,-18.13176 -14.90331,-33.03962 -33.77985,-33.79068l0,-0.00002zm0,0"/>
   <path stroke="null" id="svg_6" fill="rgb(100%,97.254902%,88.235294%)" fill-rule="nonzero" d="m93.34738,312.9805c6.20356,-3.72697 12.68775,-7.00755 19.39351,-9.82758l0,-46.81381c0,-18.57815 -15.70092,-33.64189 -35.07227,-33.64189l-19.32704,0c9.29057,0 18.20449,3.54274 24.76992,9.85591c6.57281,6.31316 10.25064,14.87244 10.23588,23.78598l0,56.76184l0,-0.12045l0.00001,0l-0.00001,0zm0,0"/>
   <path stroke="null" id="svg_7" fill="rgb(100%,97.254902%,88.235294%)" fill-rule="nonzero" d="m180.61815,31.4741c-3.16825,0 -6.40296,-0.34719 -9.63767,-0.34719c-80.08498,0 -145.00079,62.30269 -144.96386,139.1448l0,52.36884l19.3935,0l0,-52.36884c-0.04431,-73.20018 59.0815,-133.89445 135.20803,-138.79762l0,-0.00001l0,0.00001zm0,0"/>
   <path stroke="null" id="svg_8" fill="rgb(100%,69.411765%,0%)" fill-rule="nonzero" d="m93.65018,320.00222c-0.997,-0.00709 -1.98662,-0.24799 -2.86545,-0.70147c-1.81675,-1.03448 -2.94669,-2.89088 -2.991,-4.91733l0,-56.75475c-0.02954,-15.46762 -13.09394,-27.99476 -29.20842,-28.03018l-32.32497,0c-3.36764,0 -6.10016,-2.61455 -6.10016,-5.85261l0,-52.65934c0,-79.91721 67.52278,-144.69982 150.82031,-144.69982c83.29754,0 150.82031,64.78261 150.82031,144.69982l0,52.65934c0,3.23807 -2.72514,5.85261 -6.09278,5.85261l-32.93794,0c-16.11448,0.03542 -29.17888,12.56257 -29.20842,28.03018l0,55.81947c0.02216,2.05479 -1.15947,3.9537 -3.05008,4.91733c-1.89061,1.04157 -4.20957,1.04157 -6.10017,0c-21.7863,-13.46243 -47.27998,-20.34952 -73.18722,-19.77559c-26.36512,-0.01417 -52.19112,7.17051 -74.46486,20.71088c-0.95269,0.49599 -2.02354,0.73689 -3.10916,0.70147l0.00002,0zm-61.4743,-101.63423l26.40943,0c22.5839,0.02834 40.8844,17.58619 40.92133,39.26068l0,46.80674c22.00786,-11.49266 46.65962,-17.5295 71.71756,-17.55075c24.62222,-0.43221 48.94902,5.22909 70.62455,16.43833l0,-45.69431c0.03694,-21.6745 18.33743,-39.23234 40.92133,-39.26068l27.50982,0l0,-46.81381c0,-73.6749 -62.25714,-133.40556 -139.05571,-133.40556c-76.79119,0 -139.04833,59.73066 -139.04833,133.40556l0,46.81381l-0.00001,-0.00001l0.00002,0zm0,0"/>
   <path stroke="null" id="svg_9" fill="rgb(100%,69.411765%,0%)" fill-rule="nonzero" d="m128.5378,105.26236l-0.55389,0c-3.10178,-0.33302 -5.44289,-2.85544 -5.42811,-5.85261l2.37803,-34.46381c0.31757,-2.99716 2.96146,-5.27869 6.10017,-5.26452l21.35058,0c2.49619,0.78649 4.19478,3.03258 4.19478,5.55502c0,2.52952 -1.6986,4.77561 -4.19478,5.5621l-16.1071,0l-2.1934,29.25598c-0.31017,2.7846 -2.63651,4.97402 -5.54628,5.20783l0,0.00001zm0,0"/>
   <path stroke="null" id="svg_10" fill="rgb(100%,69.411765%,0%)" fill-rule="nonzero" d="m130.79028,70.79855c-2.29679,-0.0496 -4.37942,-1.33915 -5.36164,-3.33726l-11.04086,-23.40337c-0.42835,-2.60746 1.01915,-5.15824 3.53012,-6.24232c2.50358,-1.077 5.45766,-0.41804 7.20057,1.62258l11.04086,23.40337c1.18901,2.84128 -0.11816,6.08643 -2.991,7.43268c-0.7459,0.32594 -1.55827,0.50308 -2.37803,0.52433l-0.00001,-0.00001l0,0.00001zm0,0"/>
   <path stroke="null" id="svg_11" fill="rgb(100%,69.411765%,0%)" fill-rule="nonzero" d="m131.8316,302.97579c-3.36764,0 -6.10017,-2.62162 -6.10017,-5.85261l0,-27.38541c-0.73114,-2.38781 0.1994,-4.95984 2.31896,-6.40528c2.11955,-1.44544 4.95546,-1.44544 7.06762,0c2.11955,1.44544 3.05008,4.01747 2.31896,6.40528l0,27.38541c0.01477,3.06093 -2.42973,5.60462 -5.60535,5.85261l-0.00001,0zm0,0"/>
   <path stroke="null" id="svg_12" fill="rgb(100%,69.411765%,0%)" fill-rule="nonzero" d="m210.43954,302.97579c-3.36764,0 -6.10017,-2.62162 -6.10017,-5.85261l0,-27.38541c0.76067,-2.49409 3.14609,-4.20878 5.85645,-4.20878c2.71037,0 5.09579,1.71468 5.85645,4.20878l0,27.38541c0.00738,3.06093 -2.43711,5.60462 -5.61275,5.85261l0.00001,0l0.00001,0zm0,0"/>
   <path stroke="null" id="svg_13" fill="rgb(100%,69.411765%,0%)" fill-rule="nonzero" d="m171.10602,298.41275c-3.36764,0 -6.10017,-2.62163 -6.10017,-5.85261l0,-42.36412c0.76067,-2.49409 3.14609,-4.20878 5.85645,-4.20878c2.71037,0 5.09579,1.71468 5.85645,4.20878l0,42.59795c-0.11816,2.96882 -2.52573,5.38497 -5.61275,5.61879l0.00001,0l0.00001,0zm0,0"/>
   <path stroke="null" id="svg_14" fill="rgb(100%,69.411765%,0%)" fill-rule="nonzero" d="m152.38458,230.94474c-1.35887,-0.02125 -2.66606,-0.47472 -3.72214,-1.28247c-2.40758,-2.04062 -2.75468,-5.5196 -0.7976,-7.96409l18.847,-22.17049c1.15948,-1.20452 2.78421,-1.88474 4.48281,-1.88474c1.70598,0 3.33073,0.68021 4.48281,1.88474l19.76276,22.17049c1.96446,2.38781 1.6986,5.82428 -0.61297,7.90032c-2.55527,1.87057 -6.1814,1.50921 -8.29356,-0.81483l-15.18395,-17.0902l-14.51929,17.0902c-1.09301,1.29665 -2.71037,2.08314 -4.44588,2.16108l-0.00001,0l0.00001,-0.00001zm0,0"/>
   <path stroke="null" id="svg_15" fill="rgb(100%,69.411765%,0%)" fill-rule="nonzero" d="m101.51539,204.32456c-22.70207,0 -41.10596,-17.65703 -41.10596,-39.43782c0,-21.78079 18.40389,-39.43783 41.10596,-39.43783c22.70206,0 41.10595,17.65703 41.10595,39.43783c0,21.78078 -18.40389,39.43782 -41.10595,39.43782zm0,-67.58138c-11.89754,-0.02834 -22.64299,6.8375 -27.20703,17.3807c-4.56405,10.54321 -2.05308,22.68773 6.36604,30.76519c8.41173,8.07036 21.06995,10.47944 32.05911,6.1006c10.98917,-4.37884 18.1454,-14.68821 18.11587,-26.10293c-0.02954,-15.53139 -13.14563,-28.11522 -29.33397,-28.14355l-0.00001,0zm0,0"/>
   <path stroke="null" id="svg_16" fill="rgb(100%,69.411765%,0%)" fill-rule="nonzero" d="m243.8649,204.32456c-22.70206,0 -41.10595,-17.65703 -41.10595,-39.43782c0,-21.78079 18.40389,-39.43783 41.10595,-39.43783c22.70207,0 41.10596,17.65703 41.10596,39.43783c0,21.78078 -18.40389,39.43782 -41.10596,39.43782zm0,-67.58138c-11.90492,-0.02834 -22.64298,6.8375 -27.20703,17.3807c-4.57143,10.54321 -2.06047,22.68773 6.35864,30.76519c8.41173,8.07036 21.06995,10.47944 32.05911,6.1006c10.99654,-4.37884 18.1454,-14.68821 18.12325,-26.10293c-0.03694,-15.53139 -13.14564,-28.11522 -29.33397,-28.14355zm0,0"/>
  </g>
 </g>

</svg>