<svg width="400" height="400" xmlns="http://www.w3.org/2000/svg">
 <title>资源 6</title>

 <g>
  <title>Layer 1</title>
  <g stroke="null" id="图层_2" data-name="图层 2">
   <g stroke="null" id="Layer_1" data-name="Layer 1">
    <path stroke="null" class="cls-1" d="m330.77851,190.4394c0,-65.98784 -28.79627,-163.43938 -130.55093,-163.43938s-130.55093,97.45153 -130.55093,163.43938c0,40.59138 -48.15019,109.47861 -25.74656,156.62046c5.86482,12.29554 16.48015,-42.95384 34.01596,-34.36307c10.90857,5.36923 24.4563,53.69231 41.05375,56.75277c11.02586,2.094 23.45929,-40.16184 37.30027,-39.088s27.91655,45.63846 43.92752,45.63846s30.43842,-44.45723 43.57562,-45.47738s26.2744,41.182 37.30027,39.088c16.77339,-3.22154 30.32113,-51.49093 41.05375,-56.75277c17.59447,-8.48338 28.15114,46.65862 34.01596,34.36307c22.75551,-47.30293 -25.39468,-116.19015 -25.39468,-156.78153l-0.00001,0z" fill="#fff" id="svg_1"/>
    <path stroke="null" class="cls-2" d="m330.77851,190.4394c0,-53.69231 -19.23662,-128.432 -81.34508,-154.2043c48.91262,30.60462 64.51304,105.61277 64.51304,150.33846c-0.23459,35.38323 41.69889,73.39738 22.05173,114.25722c-5.10239,10.73846 -14.36881,-37.26246 -29.3241,-29.90662c-9.50101,4.56385 -21.28931,65.66569 -35.83406,68.45769c-9.61831,1.87923 -20.35093,-54.01446 -32.49111,-53.10169s-24.33901,58.84677 -38.12134,58.84677s-26.50899,-57.77293 -37.9454,-58.68569s-22.8728,54.98093 -32.43246,53.10169c-14.6034,-2.792 -26.3917,-63.89384 -35.83406,-68.45769c-15.24854,-7.35585 -24.51495,40.484 -29.61735,29.74554c-19.64715,-40.85984 22.22767,-78.874 22.22767,-114.09615c0,-44.88677 15.42448,-119.89492 64.51304,-150.33846c-62.22576,25.61123 -81.46238,100.29722 -81.46238,154.04322c0,40.59138 -48.15019,109.47861 -25.74656,156.62046c5.86482,12.29554 16.48015,-42.95384 34.01596,-34.36307c10.90857,5.36923 24.4563,53.69231 41.05375,56.75277c11.02586,2.094 23.45929,-40.16184 37.30027,-39.088s27.91655,45.63846 43.92752,45.63846s30.43842,-44.45723 43.57562,-45.47738s26.2744,41.182 37.30027,39.088c16.77339,-3.22154 30.32113,-51.49093 41.05375,-56.75277c17.59447,-8.48338 28.15114,46.65862 34.01596,34.36307c22.75551,-47.30293 -25.39468,-116.19015 -25.39468,-156.78153l-0.00002,0z" fill="#d2d3d5" opacity="0.5" id="svg_2"/>
    <path stroke="null" class="cls-3" d="m282.45239,128.63956c-0.41053,-3.97323 -43.04779,-47.30293 -47.27046,-46.17538s-2.52187,32.21538 12.90261,42.95384c12.19883,8.96662 34.95434,8.96662 34.36786,3.22154z" fill="#3c3c3c" id="svg_3"/>
    <path stroke="null" class="cls-4" d="m246.55968,129.98187c-12.60936,-9.12769 -16.89069,-30.22877 -16.30421,-40.85984c-4.10537,1.61077 -2.28728,31.94693 13.01991,42.95384c10.14614,7.30215 27.56466,8.59077 32.843,5.36923a46.21479,42.30953 0 0 1 -29.55871,-7.46323z" fill="#d2d3d5" id="svg_4"/>
    <path stroke="null" class="cls-3" d="m118.23739,118.27695c2.05269,-3.54369 59.58659,-28.51062 63.04683,-25.93338s-11.08451,30.33615 -30.02789,35.16846c-14.95529,3.91954 -36.01001,-3.86585 -33.01894,-9.23507z" fill="#3c3c3c" id="svg_5"/>
    <path stroke="null" class="cls-4" d="m150.20066,131.05571a47.97424,43.92031 0 0 1 -31.55274,-3.38262c3.46025,4.72493 20.17499,9.66462 32.60841,6.49677c15.24854,-3.91954 27.68196,-22.71184 30.08653,-31.19523c-5.74753,10.57738 -17.41852,24.53738 -31.1422,28.08107l0,0.00001z" fill="#d2d3d5" id="svg_6"/>
    <path stroke="null" class="cls-3" d="m172.36969,169.39202c0,-14.06738 12.49207,-28.94015 27.8579,-28.94015s27.79925,14.87277 27.79925,28.94015s1.34891,53.69231 -27.79925,53.69231s-27.8579,-39.62493 -27.8579,-53.69231z" fill="#3c3c3c" id="svg_7"/>
    <path stroke="null" class="cls-4" d="m200.22759,227.05755c-27.9752,0 -30.02789,-33.61138 -30.14518,-51.86677c0,16.10769 -0.46918,56.59169 30.14518,56.59169s30.20383,-40.26923 30.14518,-56.59169c-0.1173,18.25538 -2.22863,51.86677 -30.14518,51.86677z" fill="#d2d3d5" id="svg_8"/>
   </g>
  </g>
 </g>
</svg>