<svg width="400" height="400" xmlns="http://www.w3.org/2000/svg" version="1.1">
 <g>
  <title>Layer 1</title>
  <g stroke="null" id="surface1">
   <path stroke="null" id="svg_1" fill="rgb(100%,83.137255%,30.588235%)" fill-rule="nonzero" d="m62.37712,256.67659l-39.28165,0l0,-64.06226c-1.31059,-61.68445 31.97469,-119.22939 87.01924,-150.4361c55.04457,-31.21538 123.24885,-31.21538 178.29342,0c55.04457,31.2067 88.32984,88.75166 87.01924,150.4361l0,64.14036l-40.61916,0c-11.30155,0 -22.13632,4.33908 -30.11652,12.07134c-7.9802,7.73224 -12.45056,18.2068 -12.4326,29.13262l0,68.36663c-27.66591,-17.24352 -60.04454,-26.0779 -92.96176,-25.36629c-33.41094,-0.02604 -66.14864,9.14679 -94.36212,26.4424l0,-69.51215c0.01795,-10.92582 -4.46137,-21.40905 -12.44159,-29.13262c-7.9802,-7.73225 -18.81497,-12.08002 -30.11652,-12.08002"/>
   <path stroke="null" id="svg_2" fill="rgb(100%,94.117647%,77.254902%)" fill-rule="nonzero" d="m155.63512,186.01893c0,22.83227 -19.14711,41.35148 -42.77355,41.35148c-23.61746,0 -42.77354,-18.51922 -42.77354,-41.35148c0,-22.84095 19.15607,-41.3515 42.77354,-41.3515c23.62644,0 42.77355,18.51055 42.77355,41.3515zm0,0"/>
   <path stroke="null" id="svg_3" fill="rgb(100%,94.117647%,77.254902%)" fill-rule="nonzero" d="m328.43485,186.01893c0,22.83227 -19.15607,41.35148 -42.77354,41.35148c-23.62644,0 -42.77354,-18.51922 -42.77354,-41.35148c0,-22.84095 19.1471,-41.3515 42.77354,-41.3515c23.61746,0 42.77354,18.51055 42.77354,41.3515zm0,0"/>
   <path stroke="null" id="svg_4" fill="rgb(100%,97.254902%,88.235294%)" fill-rule="nonzero" d="m106.12014,144.66745c-2.48652,0.02604 -4.97305,0.26902 -7.41469,0.72029c20.3051,3.60144 35.04467,20.71479 35.04467,40.66591c0,19.95112 -14.73959,37.06446 -35.04467,40.66591c2.44164,0.45127 4.92816,0.69425 7.41469,0.72029c15.71805,0.63351 30.52945,-7.1161 38.58147,-20.17674c8.061,-13.06933 8.061,-29.34957 0,-42.4189c-8.05202,-13.06065 -22.86343,-20.81026 -38.58147,-20.17675l0,0.00001l0,-0.00002zm0,0"/>
   <path stroke="null" id="svg_5" fill="rgb(100%,97.254902%,88.235294%)" fill-rule="nonzero" d="m278.99168,144.66745c-2.4955,0.02604 -4.97305,0.26902 -7.41469,0.72029c20.29611,3.60144 35.04467,20.71479 35.04467,40.66591c0,19.95112 -14.74857,37.06446 -35.04467,40.66591c2.44164,0.45127 4.91919,0.69425 7.41469,0.72029c22.94421,-0.91989 41.05901,-19.17876 41.05901,-41.38619c0,-22.20744 -18.1148,-40.46631 -41.05901,-41.38619l0,-0.00002zm0,0"/>
   <path stroke="null" id="svg_6" fill="rgb(100%,97.254902%,88.235294%)" fill-rule="nonzero" d="m104.11836,367.40138c7.54036,-4.56472 15.42181,-8.58271 23.57258,-12.03663l0,-57.33667c0,-22.75416 -19.08428,-41.20395 -42.62993,-41.20395l-23.49179,0c11.29257,0 22.12734,4.33908 30.10755,12.07134c7.98918,7.73224 12.45954,18.21548 12.44159,29.13262l0,69.52083l0,-0.14753l0.00001,0l-0.00001,0zm0,0"/>
   <path stroke="null" id="svg_7" fill="rgb(100%,97.254902%,88.235294%)" fill-rule="nonzero" d="m210.19495,22.61764c-3.85097,0 -7.78273,-0.42523 -11.71447,-0.42523c-97.34235,0 -176.24675,76.30716 -176.20186,170.42193l0,64.14036l23.57257,0l0,-64.14036c-0.05386,-89.6542 71.81287,-163.9914 164.34376,-169.9967l0,-0.00001l0,0.00001zm0,0"/>
   <path stroke="null" id="svg_8" fill="rgb(100%,69.411765%,0%)" fill-rule="nonzero" d="m104.48641,376.00145c-1.21185,-0.00868 -2.41472,-0.30374 -3.48292,-0.85915c-2.20824,-1.26701 -3.58167,-3.54069 -3.63553,-6.02265l0,-69.51215c-0.03591,-18.94445 -15.91553,-34.28746 -35.50249,-34.33083l-39.29062,0c-4.09333,0 -7.41468,-3.20225 -7.41468,-7.16817l0,-64.49617c0,-97.88109 82.07314,-177.2256 183.32031,-177.2256c101.24717,0 183.32031,79.34451 183.32031,177.2256l0,64.49617c0,3.96592 -3.31237,7.16817 -7.4057,7.16817l-40.03567,0c-19.58696,0.04339 -35.46658,15.3864 -35.50249,34.33083l0,68.36663c0.02694,2.51666 -1.40932,4.84241 -3.70733,6.02265c-2.29801,1.27569 -5.11668,1.27569 -7.41469,0c-26.481,-16.48853 -57.46826,-24.92371 -88.9582,-24.22077c-32.04649,-0.01736 -63.43769,8.78231 -90.51116,25.36629c-1.15799,0.60748 -2.45959,0.90253 -3.77915,0.85915l0.00002,0zm-74.72129,-124.47968l32.10035,0c27.45047,0.03471 49.6945,21.53923 49.7394,48.08574l0,57.32801c26.75029,-14.076 56.71422,-21.4698 87.17185,-21.49583c29.92802,-0.52936 59.49696,6.40449 85.8433,20.13335l0,-55.96552c0.0449,-26.54652 22.28893,-48.05103 49.7394,-48.08574l33.43787,0l0,-57.33667c0,-90.23562 -75.67282,-163.39261 -169.02058,-163.39261c-93.33879,0 -169.01161,73.15699 -169.01161,163.39261l0,57.33667l-0.00001,-0.00001l0.00002,0zm0,0"/>
   <path stroke="null" id="svg_9" fill="rgb(100%,69.411765%,0%)" fill-rule="nonzero" d="m146.8919,112.99212l-0.67324,0c-3.77018,-0.40787 -6.61577,-3.4973 -6.59781,-7.16817l2.89046,-42.21062c0.386,-3.67086 3.59962,-6.46524 7.41469,-6.44788l25.95138,0c3.03409,0.96327 5.09871,3.71425 5.09871,6.80369c0,3.0981 -2.06463,5.84908 -5.09871,6.81235l-19.57799,0l-2.66605,35.83217c-0.37701,3.41052 -3.20464,6.09209 -6.74143,6.37845l0,0.00001zm0,0"/>
   <path stroke="null" id="svg_10" fill="rgb(100%,69.411765%,0%)" fill-rule="nonzero" d="m149.62976,70.78149c-2.79172,-0.06075 -5.32313,-1.64016 -6.51701,-4.08741l-13.42004,-28.664c-0.52065,-3.19357 1.23877,-6.31771 4.29082,-7.64548c3.04308,-1.31909 6.63372,-0.512 8.7522,1.9873l13.42004,28.664c1.44523,3.47995 -0.14363,7.45455 -3.63553,9.10341c-0.90663,0.3992 -1.89406,0.61616 -2.89047,0.64219l-0.00001,-0.00001l0,0.00001zm0,0"/>
   <path stroke="null" id="svg_11" fill="rgb(100%,69.411765%,0%)" fill-rule="nonzero" d="m150.89548,355.14779c-4.09333,0 -7.41469,-3.21092 -7.41469,-7.16817l0,-33.54113c-0.88869,-2.92455 0.24237,-6.07472 2.81866,-7.84506c2.57628,-1.77035 6.02331,-1.77035 8.59061,0c2.57628,1.77035 3.70733,4.92052 2.81866,7.84506l0,33.54113c0.01795,3.74897 -2.95331,6.86443 -6.81324,7.16817l-0.00001,0zm0,0"/>
   <path stroke="null" id="svg_12" fill="rgb(100%,69.411765%,0%)" fill-rule="nonzero" d="m246.4425,355.14779c-4.09333,0 -7.41469,-3.21092 -7.41469,-7.16817l0,-33.54113c0.92459,-3.05472 3.82404,-5.15483 7.11845,-5.15483c3.29442,0 6.19387,2.10011 7.11845,5.15483l0,33.54113c0.00897,3.74897 -2.96228,6.86443 -6.82223,7.16817l0.00001,0l0.00001,0zm0,0"/>
   <path stroke="null" id="svg_13" fill="rgb(100%,69.411765%,0%)" fill-rule="nonzero" d="m198.63307,349.55906c-4.09333,0 -7.41469,-3.21093 -7.41469,-7.16817l0,-51.88678c0.92459,-3.05472 3.82404,-5.15483 7.11845,-5.15483c3.29442,0 6.19387,2.10011 7.11845,5.15483l0,52.17316c-0.14363,3.63616 -3.07,6.59541 -6.82223,6.88179l0.00001,0l0.00001,0zm0,0"/>
   <path stroke="null" id="svg_14" fill="rgb(100%,69.411765%,0%)" fill-rule="nonzero" d="m175.87738,266.92552c-1.65169,-0.02603 -3.24056,-0.58143 -4.52422,-1.57074c-2.92638,-2.49932 -3.34828,-6.7603 -0.96947,-9.75427l22.9083,-27.15399c1.40933,-1.47528 3.38418,-2.30839 5.44881,-2.30839c2.0736,0 4.04846,0.83311 5.44881,2.30839l24.02141,27.15399c2.38778,2.92455 2.06463,7.13346 -0.74506,9.67617c-3.1059,2.29104 -7.51342,1.84845 -10.08073,-0.99799l-18.45591,-20.93175l-17.64802,20.93175c-1.32854,1.58811 -3.29442,2.55139 -5.40391,2.64685l-0.00001,0l0.00001,-0.00001zm0,0"/>
   <path stroke="null" id="svg_15" fill="rgb(100%,69.411765%,0%)" fill-rule="nonzero" d="m114.04649,234.32162c-27.5941,0 -49.96381,-21.626 -49.96381,-48.3027c0,-26.6767 22.36971,-48.30271 49.96381,-48.30271c27.59409,0 49.9638,21.626 49.9638,48.30271c0,26.67669 -22.36971,48.3027 -49.9638,48.3027zm0,-82.77239c-14.46132,-0.03471 -27.52229,8.37444 -33.06983,21.28755c-5.54755,12.91312 -2.4955,27.7875 7.73784,37.68062c10.22436,9.88443 25.61028,12.83501 38.96747,7.4719c13.3572,-5.36312 22.05552,-17.98984 22.01962,-31.97038c-0.03591,-19.02255 -15.97836,-34.43499 -35.65509,-34.46969l-0.00001,0zm0,0"/>
   <path stroke="null" id="svg_16" fill="rgb(100%,69.411765%,0%)" fill-rule="nonzero" d="m287.07063,234.32162c-27.59409,0 -49.9638,-21.626 -49.9638,-48.3027c0,-26.6767 22.36971,-48.30271 49.9638,-48.30271c27.5941,0 49.96381,21.626 49.96381,48.30271c0,26.67669 -22.36971,48.3027 -49.96381,48.3027zm0,-82.77239c-14.47029,-0.03471 -27.52228,8.37444 -33.06983,21.28755c-5.55652,12.91312 -2.50447,27.7875 7.72886,37.68062c10.22436,9.88443 25.61028,12.83501 38.96747,7.4719c13.36616,-5.36312 22.05552,-17.98984 22.0286,-31.97038c-0.0449,-19.02255 -15.97837,-34.43499 -35.65509,-34.46969zm0,0"/>
  </g>
 </g>

</svg>