<svg width="400" height="400" xmlns="http://www.w3.org/2000/svg" version="1.1">
 <g>
  <title>Layer 1</title>
  <g stroke="null" id="surface1">
   <path stroke="null" d="m76.3546,255.28125l-35.10321,0l0,-56.75855c-1.17118,-54.65183 28.5735,-105.6361 77.7629,-133.28495c49.18941,-27.65653 110.13872,-27.65653 159.32814,0c49.18941,27.64884 78.93409,78.63312 77.7629,133.28495l0,56.82775l-36.29845,0c-10.09939,0 -19.78165,3.84438 -26.91299,10.69509c-7.13134,6.85069 -11.12618,16.13105 -11.11013,25.81122l0,60.57218c-24.72305,-15.27759 -53.65753,-23.10477 -83.07331,-22.47429c-29.85698,-0.02307 -59.11233,8.10397 -84.32471,23.42771l0,-61.5871c0.01604,-9.68017 -3.98681,-18.96821 -11.11816,-25.81122c-7.13134,-6.8507 -16.8136,-10.70278 -26.91299,-10.70278" fill-rule="nonzero" fill="rgb(100%,83.137255%,30.588235%)" id="svg_1"/>
   <path stroke="null" d="m159.69263,192.67924c0,20.22917 -17.11041,36.63702 -38.22368,36.63702c-21.10524,0 -38.22367,-16.40785 -38.22367,-36.63702c0,-20.23686 17.11842,-36.63703 38.22367,-36.63703c21.11327,0 38.22368,16.40017 38.22368,36.63703zm0,0" fill-rule="nonzero" fill="rgb(100%,94.117647%,77.254902%)" id="svg_2"/>
   <path stroke="null" d="m314.11145,192.67924c0,20.22917 -17.11842,36.63702 -38.22367,36.63702c-21.11327,0 -38.22367,-16.40785 -38.22367,-36.63702c0,-20.23686 17.1104,-36.63703 38.22367,-36.63703c21.10524,0 38.22367,16.40017 38.22367,36.63703zm0,0" fill-rule="nonzero" fill="rgb(100%,94.117647%,77.254902%)" id="svg_3"/>
   <path stroke="null" d="m115.44462,156.04222c-2.22203,0.02307 -4.44406,0.23835 -6.62598,0.63817c18.14522,3.19084 31.31693,18.35311 31.31693,36.02961c0,17.6765 -13.17172,32.83876 -31.31693,36.02961c2.18192,0.39982 4.40395,0.6151 6.62598,0.63817c14.0461,0.56128 27.282,-6.3048 34.47751,-17.8764c7.20354,-11.5793 7.20354,-26.00344 0,-37.58274c-7.19552,-11.57161 -20.43142,-18.43769 -34.47751,-17.87641l0,0.00001zm0,0" fill-rule="nonzero" fill="rgb(100%,97.254902%,88.235294%)" id="svg_4"/>
   <path stroke="null" d="m269.92761,156.04222c-2.23005,0.02307 -4.44406,0.23835 -6.62598,0.63817c18.13719,3.19084 31.31693,18.35311 31.31693,36.02961c0,17.6765 -13.17975,32.83876 -31.31693,36.02961c2.18192,0.39982 4.39593,0.6151 6.62598,0.63817c20.50361,-0.81501 36.69151,-16.9922 36.69151,-36.66777c0,-19.67558 -16.18791,-35.85276 -36.69151,-36.66777zm0,0" fill-rule="nonzero" fill="rgb(100%,97.254902%,88.235294%)" id="svg_5"/>
   <path stroke="null" d="m113.65577,353.38235c6.73828,-4.0443 13.78137,-7.6042 21.06514,-10.66434l0,-50.79974c0,-20.15997 -17.05426,-36.50631 -38.09533,-36.50631l-20.99294,0c10.09137,0 19.77363,3.84438 26.90497,10.69509c7.13936,6.85069 11.1342,16.13874 11.11816,25.81122l0,61.59479l0,-0.13071l0.00001,0zm0,0" fill-rule="nonzero" fill="rgb(100%,97.254902%,88.235294%)" id="svg_6"/>
   <path stroke="null" d="m208.44887,47.90726c-3.44134,0 -6.95487,-0.37675 -10.46839,-0.37675c-86.98793,0 -157.49917,67.60741 -157.45906,150.9922l0,56.82775l21.06513,0l0,-56.82775c-0.04813,-79.43276 64.17405,-145.29481 146.86232,-150.61545l0,-0.00001zm0,0" fill-rule="nonzero" fill="rgb(100%,97.254902%,88.235294%)" id="svg_7"/>
   <path stroke="null" d="m113.98467,361.00193c-1.08294,-0.00769 -2.15786,-0.26911 -3.11244,-0.7612c-1.97335,-1.12256 -3.20068,-3.13702 -3.24881,-5.33601l0,-61.5871c-0.03209,-16.7846 -14.22258,-30.37836 -31.72605,-30.41679l-35.11123,0c-3.65792,0 -6.62597,-2.83716 -6.62597,-6.35093l0,-57.14299c0,-86.72171 73.34292,-157.02019 163.82031,-157.02019c90.47739,0 163.82031,70.29848 163.82031,157.02019l0,57.14299c0,3.51377 -2.96003,6.35093 -6.61795,6.35093l-35.77703,0c-17.50347,0.03844 -31.69396,13.6322 -31.72605,30.41679l0,60.57218c0.02407,2.22974 -1.25941,4.29033 -3.31298,5.33601c-2.05357,1.13025 -4.57241,1.13025 -6.62598,0c-23.66418,-14.60868 -51.35529,-22.08217 -79.49561,-21.45937c-28.63767,-0.01538 -56.68975,7.78104 -80.88338,22.47429c-1.03481,0.53822 -2.19796,0.79963 -3.37716,0.7612zm-66.7731,-110.28781l28.6858,0c24.53053,0.03075 44.40844,19.08355 44.44856,42.60351l0,50.79207c23.90483,-12.4712 50.68146,-19.02204 77.89928,-19.0451c26.74454,-0.46901 53.1682,5.67432 76.71205,17.83796l0,-49.58492c0.04012,-23.51996 19.91803,-42.57275 44.44856,-42.60351l29.88104,0l0,-50.79974c0,-79.9479 -67.62341,-144.76429 -151.04166,-144.76429c-83.41023,0 -151.03364,64.81639 -151.03364,144.76429l0,50.79974l-0.00001,-0.00001zm0,0" fill-rule="nonzero" fill="rgb(100%,69.411765%,0%)" id="svg_8"/>
   <path stroke="null" d="m151.87944,127.97818l-0.60163,0c-3.36914,-0.36137 -5.91204,-3.09857 -5.89599,-6.35093l2.583,-37.39821c0.34494,-3.25235 3.21672,-5.72814 6.62598,-5.71276l23.1909,0c2.71135,0.85345 4.55635,3.29079 4.55635,6.028c0,2.74489 -1.84501,5.18223 -4.55635,6.03568l-17.49546,0l-2.38246,31.74696c-0.33691,3.02169 -2.86376,5.39753 -6.02434,5.65125l0,0.00001zm0,0" fill-rule="nonzero" fill="rgb(100%,69.411765%,0%)" id="svg_9"/>
   <path stroke="null" d="m154.32607,90.57997c-2.49476,-0.05382 -4.7569,-1.45317 -5.82379,-3.62141l-11.99253,-25.39603c-0.46527,-2.82947 1.107,-5.59743 3.8344,-6.77382c2.71938,-1.1687 5.92808,-0.45363 7.82122,1.76073l11.99253,25.39603c1.2915,3.0832 -0.12835,6.60466 -3.24881,8.06553c-0.81019,0.35369 -1.69259,0.54591 -2.58301,0.56897l-0.00001,-0.00001zm0,0" fill-rule="nonzero" fill="rgb(100%,69.411765%,0%)" id="svg_10"/>
   <path stroke="null" d="m155.45715,342.52579c-3.65792,0 -6.62598,-2.84484 -6.62598,-6.35093l0,-29.71712c-0.79416,-2.59112 0.21659,-5.38214 2.51884,-6.95065c2.30224,-1.56851 5.3826,-1.56851 7.67682,0c2.30224,1.56851 3.31298,4.35953 2.51884,6.95065l0,29.71712c0.01604,3.32155 -2.63916,6.08182 -6.08851,6.35093zm0,0" fill-rule="nonzero" fill="rgb(100%,69.411765%,0%)" id="svg_11"/>
   <path stroke="null" d="m240.84072,342.52579c-3.65792,0 -6.62598,-2.84484 -6.62598,-6.35093l0,-29.71712c0.82624,-2.70645 3.41727,-4.56713 6.36125,-4.56713c2.94399,0 5.53502,1.86068 6.36125,4.56713l0,29.71712c0.00802,3.32155 -2.64718,6.08182 -6.09654,6.35093l0.00001,0zm0,0" fill-rule="nonzero" fill="rgb(100%,69.411765%,0%)" id="svg_12"/>
   <path stroke="null" d="m198.11684,337.57423c-3.65792,0 -6.62598,-2.84485 -6.62598,-6.35093l0,-45.97119c0.82624,-2.70645 3.41727,-4.56713 6.36125,-4.56713c2.94399,0 5.53502,1.86068 6.36125,4.56713l0,46.22492c-0.12835,3.2216 -2.74344,5.84347 -6.09654,6.0972l0.00001,0zm0,0" fill-rule="nonzero" fill="rgb(100%,69.411765%,0%)" id="svg_13"/>
   <path stroke="null" d="m177.7817,264.3617c-1.476,-0.02306 -2.89586,-0.51514 -4.04297,-1.39166c-2.6151,-2.21437 -2.99212,-5.98956 -0.86635,-8.64219l20.47152,-24.05818c1.25942,-1.30708 3.0242,-2.04521 4.86921,-2.04521c1.85303,0 3.61782,0.73813 4.86921,2.04521l21.46622,24.05818c2.13379,2.59112 1.84501,6.32018 -0.66581,8.57299c-2.77552,2.02984 -6.71421,1.63771 -9.00843,-0.88421l-16.49273,-18.54533l-15.77078,18.54533c-1.18722,1.40705 -2.94399,2.26051 -4.82909,2.34508l-0.00001,0zm0,0" fill-rule="nonzero" fill="rgb(100%,69.411765%,0%)" id="svg_14"/>
   <path stroke="null" d="m122.52783,235.47496c-24.65888,0 -44.6491,-19.16043 -44.6491,-42.79573c0,-23.6353 19.99022,-42.79574 44.6491,-42.79574c24.65887,0 44.64909,19.16043 44.64909,42.79574c0,23.63529 -19.99022,42.79573 -44.64909,42.79573zm0,-73.33555c-12.92305,-0.03075 -24.59471,7.41967 -29.55215,18.86057c-4.95745,11.4409 -2.23005,24.61946 6.91476,33.38467c9.13678,8.75751 22.88608,11.3717 34.82245,6.62003c11.93638,-4.75167 19.70945,-15.93883 19.67737,-28.32545c-0.03209,-16.8538 -14.27872,-30.50907 -31.86242,-30.53982zm0,0" fill-rule="nonzero" fill="rgb(100%,69.411765%,0%)" id="svg_15"/>
   <path stroke="null" d="m277.14719,235.47496c-24.65887,0 -44.64909,-19.16043 -44.64909,-42.79573c0,-23.6353 19.99022,-42.79574 44.64909,-42.79574c24.65888,0 44.6491,19.16043 44.6491,42.79574c0,23.63529 -19.99022,42.79573 -44.6491,42.79573zm0,-73.33555c-12.93107,-0.03075 -24.5947,7.41967 -29.55215,18.86057c-4.96547,11.4409 -2.23807,24.61946 6.90673,33.38467c9.13678,8.75751 22.88608,11.3717 34.82245,6.62003c11.94439,-4.75167 19.70945,-15.93883 19.68539,-28.32545c-0.04012,-16.8538 -14.27873,-30.50907 -31.86242,-30.53982zm0,0" fill-rule="nonzero" fill="rgb(100%,69.411765%,0%)" id="svg_16"/>
  </g>
 </g>

</svg>